# xmcd
#
# Track frame offsets: 
#        150
#        13252
#        26570
#        34542
#        48075
#        58632
#        69952
#        76460
#        84652
#        97855
#        104402
#        117737
#        126362
#        138855
#        147950
#        158980
#        172092
#        179452
#        192052
#        203357
#
# Disc length: 2845 seconds
#
# Revision: 3
# Processed by: cddbd v1.5.2PL0 Copyright (c) Steve Scherf et al.
# Submitted via: ExactAudioCopy v0.95b3
#
DISCID=0e0b1b14
DTITLE=Tex Williams and His Western Caravan - Tex Williams and His Western
DTITLE=Caravan - Vintage Collections
DYEAR=1996
DGENRE=Country
TTITLE0=Smoke! Smoke! Smoke! (That Cigarette)
TTITLE1=I Got Texas In My Soul
TTITLE2=Fiddle Time
TTITLE3=The Leaf Of Love
TTITLE4=Wild Card
TTITLE5=Brother, Drop Dead (previously unreleased)
TTITLE6=On The Double
TTITLE7=Won't You Ride In My Little Red Wagon?
TTITLE8=Suspicion
TTITLE9=Caravan Ride
TTITLE10=Western Jamboree (previously unreleased)
TTITLE11=My Confession
TTITLE12=That's What I Like About The West
TTITLE13=The Campbells Are Coming
TTITLE14=I Lost My Gal From Mempis
TTITLE15=Never Trust A Woman
TTITLE16=Steel Guitar Rag
TTITLE17=Downtown Poker Club
TTITLE18=You Can't Break My Heart (live)
TTITLE19=My Window Faces The South (live)
EXTD=
EXTT0=
EXTT1=
EXTT2=
EXTT3=
EXTT4=
EXTT5=
EXTT6=
EXTT7=
EXTT8=
EXTT9=
EXTT10=
EXTT11=
EXTT12=
EXTT13=
EXTT14=
EXTT15=
EXTT16=
EXTT17=
EXTT18=
EXTT19=
PLAYORDER=
